<svg xmlns="http://www.w3.org/2000/svg" viewBox="0 0 960 540" role="img" aria-labelledby="title desc">
  <title id="title">조별 활동 책상</title>
  <desc id="desc">여러 활동지가 놓인 조별 활동 책상</desc>
  <defs>
    <linearGradient id="bg" x1="0" y1="0" x2="1" y2="1">
      <stop offset="0" stop-color="#eef4f1"/>
      <stop offset="1" stop-color="#f6e6dc"/>
    </linearGradient>
    <linearGradient id="table" x1="0" y1="0" x2="1" y2="1">
      <stop offset="0" stop-color="#b9875e"/>
      <stop offset="1" stop-color="#795a40"/>
    </linearGradient>
  </defs>
  <rect width="960" height="540" fill="url(#bg)"/>
  <ellipse cx="480" cy="300" rx="328" ry="164" fill="url(#table)"/>
  <ellipse cx="480" cy="300" rx="300" ry="139" fill="#c79a6f" opacity=".45"/>
  <g fill="#fffdf8" stroke="#d7c9b4" stroke-width="5">
    <rect x="330" y="155" width="158" height="118" rx="8" transform="rotate(-7 409 214)"/>
    <rect x="492" y="170" width="166" height="122" rx="8" transform="rotate(8 575 231)"/>
    <rect x="384" y="296" width="184" height="132" rx="8" transform="rotate(2 476 362)"/>
  </g>
  <g stroke="#83958f" stroke-width="6" stroke-linecap="round">
    <line x1="360" y1="194" x2="454" y2="182"/>
    <line x1="364" y1="224" x2="452" y2="213"/>
    <line x1="522" y1="214" x2="622" y2="228"/>
    <line x1="518" y1="246" x2="600" y2="257"/>
    <line x1="418" y1="340" x2="535" y2="344"/>
    <line x1="416" y1="374" x2="512" y2="378"/>
  </g>
  <g fill="#5f7270">
    <circle cx="254" cy="220" r="33"/>
    <rect x="220" y="252" width="68" height="102" rx="30"/>
    <circle cx="708" cy="226" r="33"/>
    <rect x="674" y="258" width="68" height="102" rx="30"/>
    <circle cx="480" cy="86" r="31"/>
    <rect x="448" y="116" width="64" height="92" rx="28"/>
  </g>
  <g fill="#c76c5f" opacity=".85">
    <rect x="263" y="310" width="108" height="18" rx="9" transform="rotate(12 317 319)"/>
    <circle cx="388" cy="330" r="10"/>
  </g>
  <path d="M616 338c28-24 60-30 98-20" fill="none" stroke="#31706f" stroke-width="8" stroke-linecap="round" opacity=".75"/>
</svg>
