<svg xmlns="http://www.w3.org/2000/svg" viewBox="0 0 960 540" role="img" aria-labelledby="title desc">
  <title id="title">복도</title>
  <desc id="desc">조용한 학교 복도와 길게 이어지는 빛</desc>
  <defs>
    <linearGradient id="hall" x1="0" y1="0" x2="1" y2="0">
      <stop offset="0" stop-color="#e8f1eb"/>
      <stop offset=".55" stop-color="#f7f1df"/>
      <stop offset="1" stop-color="#d8e8e4"/>
    </linearGradient>
    <linearGradient id="floor" x1="0" y1="0" x2="0" y2="1">
      <stop offset="0" stop-color="#d5c4a4"/>
      <stop offset="1" stop-color="#9b7d5d"/>
    </linearGradient>
  </defs>
  <rect width="960" height="540" fill="url(#hall)"/>
  <polygon points="0,398 960,398 960,540 0,540" fill="url(#floor)"/>
  <polygon points="368,398 592,398 738,540 222,540" fill="#7e6047" opacity=".25"/>
  <g stroke="#8ab4af" stroke-width="8" fill="#f9fbf7">
    <rect x="78" y="82" width="126" height="220" rx="8"/>
    <rect x="252" y="112" width="112" height="190" rx="8"/>
    <rect x="596" y="112" width="112" height="190" rx="8"/>
    <rect x="756" y="82" width="126" height="220" rx="8"/>
  </g>
  <g fill="#b9d6d3" opacity=".72">
    <rect x="94" y="102" width="94" height="70" rx="4"/>
    <rect x="268" y="130" width="80" height="58" rx="4"/>
    <rect x="612" y="130" width="80" height="58" rx="4"/>
    <rect x="772" y="102" width="94" height="70" rx="4"/>
  </g>
  <rect x="425" y="72" width="110" height="256" rx="8" fill="#516c65"/>
  <rect x="444" y="96" width="72" height="96" rx="4" fill="#dcebe5"/>
  <circle cx="516" cy="232" r="7" fill="#d0a24c"/>
  <path d="M70 374h820" stroke="#5b706d" stroke-width="7" opacity=".45"/>
  <g fill="#3d4e4a" opacity=".34">
    <ellipse cx="304" cy="414" rx="44" ry="10"/>
    <ellipse cx="656" cy="414" rx="44" ry="10"/>
  </g>
  <g fill="#5f7270">
    <circle cx="304" cy="278" r="26"/>
    <rect x="278" y="304" width="52" height="86" rx="22"/>
    <circle cx="656" cy="278" r="26"/>
    <rect x="630" y="304" width="52" height="86" rx="22"/>
  </g>
  <path d="M360 260c52 30 188 30 240 0" fill="none" stroke="#c76c5f" stroke-width="5" stroke-linecap="round" opacity=".5"/>
</svg>
