<svg xmlns="http://www.w3.org/2000/svg" viewBox="0 0 960 540" role="img" aria-labelledby="title desc">
  <title id="title">창가</title>
  <desc id="desc">창가 책상과 조용한 빛이 있는 장면</desc>
  <defs>
    <linearGradient id="sky" x1="0" y1="0" x2="0" y2="1">
      <stop offset="0" stop-color="#cfe4e2"/>
      <stop offset="1" stop-color="#f7f1df"/>
    </linearGradient>
    <linearGradient id="room" x1="0" y1="0" x2="1" y2="1">
      <stop offset="0" stop-color="#eef5ef"/>
      <stop offset="1" stop-color="#f8eadf"/>
    </linearGradient>
  </defs>
  <rect width="960" height="540" fill="url(#room)"/>
  <rect x="126" y="54" width="708" height="294" rx="10" fill="#f9fbf7" stroke="#94bdb8" stroke-width="10"/>
  <rect x="146" y="74" width="668" height="254" fill="url(#sky)"/>
  <line x1="480" y1="60" x2="480" y2="342" stroke="#94bdb8" stroke-width="9"/>
  <line x1="132" y1="202" x2="828" y2="202" stroke="#94bdb8" stroke-width="9"/>
  <path d="M150 282c90-64 150-64 238-24 78 36 142 35 218-7 80-44 139-34 208 24v53H150z" fill="#7aa874" opacity=".62"/>
  <circle cx="712" cy="117" r="34" fill="#d4a249" opacity=".7"/>
  <rect x="0" y="348" width="960" height="192" fill="#b99064"/>
  <rect x="222" y="342" width="516" height="34" rx="8" fill="#795c43"/>
  <rect x="276" y="376" width="408" height="54" rx="8" fill="#8e6d4f"/>
  <rect x="310" y="404" width="14" height="86" rx="4" fill="#4e5f5b"/>
  <rect x="636" y="404" width="14" height="86" rx="4" fill="#4e5f5b"/>
  <rect x="392" y="298" width="176" height="116" rx="8" fill="#fffdf8" stroke="#d1c3ac" stroke-width="5"/>
  <line x1="414" y1="330" x2="546" y2="330" stroke="#8a9c95" stroke-width="6" stroke-linecap="round"/>
  <line x1="414" y1="360" x2="520" y2="360" stroke="#8a9c95" stroke-width="6" stroke-linecap="round"/>
  <line x1="414" y1="390" x2="548" y2="390" stroke="#8a9c95" stroke-width="6" stroke-linecap="round"/>
</svg>
